<svg width="60" height="60" viewBox="0 0 50 50" fill="none" xmlns="http://www.w3.org/2000/svg">
<path d="M41.4586 4.80665C41.1234 3.95333 39.92 3.95333 39.5848 4.80665L38.6881 7.08848C38.5859 7.349 38.3804 7.55523 38.1209 7.65798L35.8473 8.55792C34.9971 8.89446 34.9971 10.1021 35.8473 10.4386L38.1209 11.3386C38.3804 11.4413 38.5859 11.6475 38.6881 11.9081L39.5848 14.1899C39.92 15.0432 41.1234 15.0432 41.4586 14.1899L42.3552 11.9081C42.4575 11.6475 42.6629 11.4413 42.9225 11.3386L45.1961 10.4386C46.0463 10.1021 46.0463 8.89446 45.1961 8.55792L42.9225 7.65798C42.6629 7.55523 42.4575 7.349 42.3552 7.08848L41.4586 4.80665Z" fill="white"/>
<path d="M33.4017 16.9368C33.0663 16.0835 31.8631 16.0835 31.5277 16.9368L31.2008 17.7688C31.0985 18.0293 30.8931 18.2355 30.6335 18.3383L29.8046 18.6664C28.9544 19.0029 28.9544 20.2106 29.8046 20.5471L30.6335 20.8752C30.8931 20.9779 31.0985 21.1842 31.2008 21.4448L31.5277 22.2767C31.8631 23.13 33.0663 23.13 33.4017 22.2767L33.7285 21.4448C33.8308 21.1842 34.0363 20.9779 34.2958 20.8752L35.1248 20.5471C35.975 20.2106 35.975 19.0029 35.1248 18.6664L34.2958 18.3383C34.0363 18.2355 33.8308 18.0293 33.7285 17.7688L33.4017 16.9368Z" fill="white"/>
<path d="M25 45.8333C36.5058 45.8333 45.8333 36.5058 45.8333 25C45.8333 24.036 44.3885 23.8767 43.89 24.7017C41.5185 28.6263 37.2114 31.25 32.2917 31.25C24.8127 31.25 18.75 25.1873 18.75 17.7083C18.75 12.7884 21.3737 8.48136 25.2983 6.10992C26.1233 5.6114 25.9639 4.16667 25 4.16667C13.4941 4.16667 4.16666 13.4941 4.16666 25C4.16666 36.5058 13.4941 45.8333 25 45.8333Z" fill="white"/>
</svg>
