<svg width="60" height="60" viewBox="0 0 50 50" fill="none" xmlns="http://www.w3.org/2000/svg">
<path d="M4.16669 25C4.16669 13.4941 13.4941 4.16667 25 4.16667C25.964 4.16667 26.1234 5.6114 25.2983 6.10992C21.3738 8.48136 18.75 12.7884 18.75 17.7083C18.75 25.1873 24.8127 31.25 32.2917 31.25C37.2115 31.25 41.5186 28.6263 43.89 24.7017C44.3886 23.8767 45.8333 24.036 45.8333 25C45.8333 27.3702 45.4375 29.6479 44.7083 31.7708H45.8333C46.6963 31.7708 47.3958 32.4704 47.3958 33.3333C47.3958 34.1963 46.6963 34.8958 45.8333 34.8958H4.16669C3.30375 34.8958 2.60419 34.1963 2.60419 33.3333C2.60419 32.4704 3.30375 31.7708 4.16669 31.7708H5.29164C4.5625 29.6479 4.16669 27.3702 4.16669 25Z" fill="white"/>
<path d="M10.4167 38.0208C9.55375 38.0208 8.85419 38.7204 8.85419 39.5833C8.85419 40.4462 9.55375 41.1458 10.4167 41.1458H39.5833C40.4463 41.1458 41.1458 40.4462 41.1458 39.5833C41.1458 38.7204 40.4463 38.0208 39.5833 38.0208H10.4167Z" fill="white"/>
<path d="M16.6667 44.2708C15.8037 44.2708 15.1042 44.9704 15.1042 45.8333C15.1042 46.6963 15.8037 47.3958 16.6667 47.3958H33.3334C34.1963 47.3958 34.8959 46.6963 34.8959 45.8333C34.8959 44.9704 34.1963 44.2708 33.3334 44.2708H16.6667Z" fill="white"/>
<path d="M41.4586 4.80665C41.1234 3.95333 39.92 3.95333 39.5848 4.80665L38.6881 7.08848C38.5859 7.349 38.3804 7.55523 38.1209 7.65798L35.8473 8.55792C34.9971 8.89446 34.9971 10.1021 35.8473 10.4386L38.1209 11.3386C38.3804 11.4413 38.5859 11.6475 38.6881 11.9081L39.5848 14.1899C39.92 15.0432 41.1234 15.0432 41.4586 14.1899L42.3552 11.9081C42.4575 11.6475 42.6629 11.4413 42.9225 11.3386L45.1961 10.4386C46.0463 10.1021 46.0463 8.89446 45.1961 8.55792L42.9225 7.65798C42.6629 7.55523 42.4575 7.349 42.3552 7.08848L41.4586 4.80665Z" fill="white"/>
<path d="M33.4017 16.9368C33.0663 16.0835 31.8631 16.0835 31.5277 16.9368L31.2008 17.7688C31.0985 18.0293 30.8931 18.2355 30.6335 18.3383L29.8046 18.6664C28.9544 19.0029 28.9544 20.2106 29.8046 20.5471L30.6335 20.8752C30.8931 20.9779 31.0985 21.1842 31.2008 21.4448L31.5277 22.2767C31.8631 23.13 33.0663 23.13 33.4017 22.2767L33.7285 21.4448C33.8308 21.1842 34.0363 20.9779 34.2958 20.8752L35.1248 20.5471C35.975 20.2106 35.975 19.0029 35.1248 18.6664L34.2958 18.3383C34.0363 18.2355 33.8308 18.0293 33.7285 17.7688L33.4017 16.9368Z" fill="white"/>
</svg>
