<svg width="18" height="18" viewBox="0 0 22 22" fill="none" xmlns="http://www.w3.org/2000/svg">
<path d="M0 9.15503C0 14.2056 4.10895 18.3101 9.15503 18.3101C11.4798 18.3101 13.6064 17.436 15.2238 16.0033L21.0584 21.8378C21.1665 21.9459 21.3062 22 21.4503 22C21.5945 22 21.7342 21.9459 21.8423 21.8378C22.0586 21.6215 22.0586 21.2746 21.8423 21.0584L16.0033 15.2238C17.436 13.6064 18.3101 11.4843 18.3101 9.15503C18.3101 4.10444 14.2011 0 9.15503 0C4.10895 0 0 4.10444 0 9.15503ZM17.2062 9.15503C17.2062 13.5929 13.5929 17.2062 9.15503 17.2062C4.71718 17.2062 1.10383 13.5929 1.10383 9.15503C1.10383 4.71718 4.71718 1.10383 9.15503 1.10383C13.5929 1.10383 17.2062 4.71268 17.2062 9.15503Z" fill="#7C7C7C"/>
</svg>
