<svg width="60" height="60" viewBox="0 0 50 50" fill="none" xmlns="http://www.w3.org/2000/svg">
<g clip-path="url(#clip0_7_71)">
<path d="M25.0023 37.5047C31.9063 37.5047 37.5031 31.9079 37.5031 25.0039C37.5031 18.0999 31.9063 12.5031 25.0023 12.5031C18.0984 12.5031 12.5016 18.0999 12.5016 25.0039C12.5016 31.9079 18.0984 37.5047 25.0023 37.5047Z" fill="white"/>
<path fill-rule="evenodd" clip-rule="evenodd" d="M9.37578 24.9977C9.37578 23.2703 7.97813 21.8727 6.25078 21.8727H3.125C1.39766 21.8727 0 23.2703 0 24.9977C0 26.725 1.39766 28.1227 3.125 28.1227H6.25C7.97813 28.1227 9.37578 26.725 9.37578 24.9977Z" fill="white"/>
<path fill-rule="evenodd" clip-rule="evenodd" d="M9.53437 36.0461L7.32187 38.2594C6.10078 39.4797 6.10078 41.4578 7.32187 42.6781C8.54218 43.8984 10.5203 43.8984 11.7414 42.6781L13.9547 40.4656C15.175 39.2453 15.175 37.2664 13.9547 36.0461C12.7328 34.825 10.7555 34.825 9.53437 36.0461Z" fill="white"/>
<path fill-rule="evenodd" clip-rule="evenodd" d="M25.0023 40.6242C23.275 40.6242 21.8773 42.0219 21.8773 43.7492V46.875C21.8773 48.6023 23.275 50 25.0023 50C26.7297 50 28.1273 48.6023 28.1273 46.875L28.1242 43.7492C28.1273 42.0219 26.7266 40.6242 25.0023 40.6242Z" fill="white"/>
<path fill-rule="evenodd" clip-rule="evenodd" d="M40.4672 36.0492C39.2492 34.8258 37.2711 34.8258 36.0508 36.0461C34.8305 37.2664 34.8305 39.2453 36.0508 40.4656L38.2609 42.675C39.4812 43.9016 41.4594 43.8953 42.6797 42.675C43.9 41.4547 43.9031 39.4797 42.6797 38.2562L40.4672 36.0492Z" fill="white"/>
<path fill-rule="evenodd" clip-rule="evenodd" d="M46.8797 21.8727L43.7477 21.8789C42.0266 21.8727 40.6289 23.2703 40.6289 24.9977C40.6227 26.725 42.0266 28.1227 43.7477 28.1227H46.8734C48.607 28.1289 49.9984 26.725 49.9984 24.9977C50.0016 23.2734 48.607 21.8727 46.8797 21.8727Z" fill="white"/>
<path fill-rule="evenodd" clip-rule="evenodd" d="M40.4672 13.9523L42.6766 11.7422C43.9062 10.5187 43.8969 8.54375 42.6766 7.32266C41.4586 6.09844 39.4812 6.09844 38.2609 7.31953L36.0508 9.53516C34.8305 10.75 34.8305 12.7273 36.0508 13.9484C37.2648 15.1766 39.2492 15.1703 40.4672 13.9523Z" fill="white"/>
<path fill-rule="evenodd" clip-rule="evenodd" d="M25.0023 9.37109C26.7266 9.38359 28.1273 7.97344 28.1273 6.25234V3.12734C28.1273 1.39375 26.7297 0.00234403 25.0023 0.00234403C23.275 -0.00390597 21.8773 1.39375 21.8773 3.12188L21.8836 6.25312C21.8773 7.97344 23.275 9.37109 25.0023 9.37109Z" fill="white"/>
<path fill-rule="evenodd" clip-rule="evenodd" d="M9.54062 13.9492C10.7555 15.1695 12.7273 15.1695 13.9516 13.9461C15.1812 12.7344 15.175 10.7508 13.9578 9.53281L11.7477 7.32344C10.5211 6.09609 8.54922 6.10547 7.32813 7.32344C6.09766 8.54141 6.09766 10.5187 7.31875 11.7398L9.54062 13.9492Z" fill="white"/>
</g>
<defs>
<clipPath id="clip0_7_71">
<rect width="50" height="50" fill="white"/>
</clipPath>
</defs>
</svg>
