<svg width="60" height="60" viewBox="0 0 50 50" fill="none" xmlns="http://www.w3.org/2000/svg">
<g clip-path="url(#clip0_7_49)">
<path d="M35.2402 33.5663C36.5643 33.5663 37.6382 32.5746 37.6382 31.2506C37.6382 24.4098 32.0722 18.8855 25.2304 18.8855C18.3885 18.8855 12.8225 24.3901 12.8225 31.2308C12.8225 32.5548 13.8964 33.5674 15.2205 33.5674L35.2402 33.5663Z" fill="white"/>
<path d="M47.1698 43.439H2.19394C0.982887 43.439 0 42.4561 0 41.2451C0 40.034 0.982887 39.0511 2.19394 39.0511H47.1698C48.3809 39.0511 49.3638 40.034 49.3638 41.2451C49.3638 42.4561 48.3809 43.439 47.1698 43.439Z" fill="white"/>
<path d="M25.2304 15.2764C23.8931 15.2764 23.0364 14.1926 23.0364 12.8565V8.98201C23.0364 7.6448 23.8931 6.56099 25.2304 6.56099C26.5676 6.56099 27.4243 7.6448 27.4243 8.98201V12.8554C27.4243 14.1926 26.5676 15.2764 25.2304 15.2764Z" fill="white"/>
<path d="M36.584 19.9792C35.6373 19.0336 35.6373 17.5011 36.584 16.5555L39.3221 13.8164C40.2665 12.8719 41.8012 12.8719 42.7457 13.8164C43.6913 14.762 43.6913 16.2955 42.7457 17.24L40.0077 19.9792C39.0599 20.9247 37.5285 20.9247 36.584 19.9792Z" fill="white"/>
<path d="M47.579 29.1784H43.7056C42.3684 29.1784 41.2845 30.0472 41.2845 31.3844C41.2845 32.6426 42.2488 33.5663 43.4763 33.5663H45.3412C45.4234 33.5663 45.4969 33.5663 45.5737 33.5663H47.579C48.9162 33.5663 50 32.7095 50 31.3723C50 30.0351 48.9162 29.1784 47.579 29.1784Z" fill="white"/>
<path d="M9.17507 31.3723C9.17507 30.0351 8.09126 29.1784 6.75405 29.1784H2.88174C1.54453 29.1784 0.460724 30.0351 0.460724 31.3723C0.460724 32.7095 1.54453 33.5663 2.88174 33.5663H6.75515C8.09126 33.5663 9.17507 32.7084 9.17507 31.3723Z" fill="white"/>
<path d="M13.8778 19.9792C14.8234 19.0336 14.8234 17.5011 13.8778 16.5555L11.1387 13.8164C10.1931 12.8719 8.6606 12.8719 7.71501 13.8164C6.76942 14.762 6.76942 16.2955 7.71501 17.24L10.4541 19.9792C11.3997 20.9258 12.9322 20.9258 13.8778 19.9792Z" fill="white"/>
</g>
<defs>
<clipPath id="clip0_7_49">
<rect width="50" height="50" fill="white"/>
</clipPath>
</defs>
</svg>
